<?xml version="1.0" encoding="UTF-8" standalone="no"?>
<svg
   xmlns:dc="http://purl.org/dc/elements/1.1/"
   xmlns:cc="http://creativecommons.org/ns#"
   xmlns:rdf="http://www.w3.org/1999/02/22-rdf-syntax-ns#"
   xmlns:svg="http://www.w3.org/2000/svg"
   xmlns="http://www.w3.org/2000/svg"
   xmlns:sodipodi="http://sodipodi.sourceforge.net/DTD/sodipodi-0.dtd"
   xmlns:inkscape="http://www.inkscape.org/namespaces/inkscape"
   viewBox="0 0 24 24"
   id="svg2"
   version="1.1"
   inkscape:version="0.92.4 5da689c313, 2019-01-14"
   sodipodi:docname="chatty.svg">
  <metadata
     id="metadata18">
    <rdf:RDF>
      <cc:Work
         rdf:about="">
        <dc:format>image/svg+xml</dc:format>
        <dc:type
           rdf:resource="http://purl.org/dc/dcmitype/StillImage" />
      </cc:Work>
    </rdf:RDF>
  </metadata>
  <defs
     id="defs16" />
  <sodipodi:namedview
     pagecolor="#ffffff"
     bordercolor="#666666"
     borderopacity="1"
     objecttolerance="10"
     gridtolerance="10"
     guidetolerance="10"
     inkscape:pageopacity="0"
     inkscape:pageshadow="2"
     inkscape:window-width="1864"
     inkscape:window-height="1051"
     id="namedview14"
     showgrid="true"
     inkscape:zoom="45.254834"
     inkscape:cx="18.460026"
     inkscape:cy="8.7147643"
     inkscape:window-x="0"
     inkscape:window-y="0"
     inkscape:window-maximized="1"
     inkscape:current-layer="svg2">
    <inkscape:grid
       type="xygrid"
       id="grid4155" />
  </sodipodi:namedview>
  <path
     style="fill:#00ccff"
     d="m 12,4 c -2.2091257,-5.5e-6 -3.9999834,1.7908522 -4,4 1.66e-5,2.209148 1.7908743,4.000006 4,4 2.209126,6e-6 3.999983,-1.790852 4,-4 -1.7e-5,-2.2091478 -1.790874,-4.0000055 -4,-4 z m 0,1 c 1.656843,0 2.999983,1.3431409 3,3 -1.7e-5,1.6568591 -1.343157,3 -3,3 -1.656843,0 -2.9999834,-1.3431409 -3,-3 1.66e-5,-1.6568591 1.343157,-3 3,-3 z m 0,8 C 7.9720211,13.0048 4.5757737,16.003572 4.0722656,20 H 5.0800781 C 5.5767373,16.559083 8.5234608,14.004092 12,14 c 0.33482,0.0027 0.669011,0.0295 1,0.08008 V 13.070312 C 12.668464,13.025993 12.334475,13.002509 12,13 Z m 4.5,0 C 14.567003,13 13,14.567003 13,16.5 13,18.432997 14.567003,20 16.5,20 18.432997,20 20,18.432997 20,16.5 20,14.567003 18.432997,13 16.5,13 Z m 0.02148,0.646484 c 0.552285,5e-6 0.994894,0.435764 0.996094,0.994141 l 0.002,1.365234 C 17.520678,16.558142 17.075723,17 16.523438,17 c -0.548493,2.6e-5 -1.002407,-0.443721 -1.003907,-1 l -0.002,-1.359375 c -3.43e-4,-0.552341 0.453901,-0.994145 1.003906,-0.994141 z M 14.4375,16 H 15 c 7.5e-5,0.535823 0.285963,1.030916 0.75,1.298828 0.464102,0.267949 1.035898,0.267949 1.5,0 C 17.714037,17.030916 17.999925,16.535823 18,16 h 0.5625 c 1.32e-4,0.737139 -0.392969,1.418365 -1.03125,1.787109 C 17.364915,17.882405 17.186113,17.954058 17,18 v 0.658203 h 1 V 19 h -3 v -0.341797 h 1 V 18 C 15.813887,17.954058 15.635085,17.882405 15.46875,17.787109 14.830469,17.418365 14.437368,16.737139 14.4375,16 Z"
     id="path8"
     inkscape:connector-curvature="0"
     sodipodi:nodetypes="cccccscscscccccccssssscccccccccssccccccccccccc" />
</svg>
