<?xml version="1.0" encoding="UTF-8" standalone="no"?>
<!-- Created using Karbon, part of Calligra: http://www.calligra.org/karbon -->

<svg
   xmlns:dc="http://purl.org/dc/elements/1.1/"
   xmlns:cc="http://creativecommons.org/ns#"
   xmlns:rdf="http://www.w3.org/1999/02/22-rdf-syntax-ns#"
   xmlns:svg="http://www.w3.org/2000/svg"
   xmlns="http://www.w3.org/2000/svg"
   xmlns:sodipodi="http://sodipodi.sourceforge.net/DTD/sodipodi-0.dtd"
   xmlns:inkscape="http://www.inkscape.org/namespaces/inkscape"
   width="300"
   height="300"
   version="1.1"
   id="svg26"
   sodipodi:docname="logo.svg"
   inkscape:version="0.92.4 5da689c313, 2019-01-14">
  <metadata
     id="metadata30">
    <rdf:RDF>
      <cc:Work
         rdf:about="">
        <dc:format>image/svg+xml</dc:format>
        <dc:type
           rdf:resource="http://purl.org/dc/dcmitype/StillImage" />
        <dc:title />
      </cc:Work>
    </rdf:RDF>
  </metadata>
  <sodipodi:namedview
     pagecolor="#ffffff"
     bordercolor="#666666"
     borderopacity="1"
     objecttolerance="10"
     gridtolerance="10"
     guidetolerance="10"
     inkscape:pageopacity="0"
     inkscape:pageshadow="2"
     inkscape:window-width="1864"
     inkscape:window-height="1051"
     id="namedview28"
     showgrid="false"
     inkscape:zoom="2.2076429"
     inkscape:cx="68.745512"
     inkscape:cy="206.04055"
     inkscape:window-x="0"
     inkscape:window-y="0"
     inkscape:window-maximized="1"
     inkscape:current-layer="layer0"
     units="px"
     inkscape:document-units="px" />
  <defs
     id="defs7">
    <radialGradient
       id="gradient0"
       gradientTransform="scale(0.94311191,1.0603196)"
       gradientUnits="userSpaceOnUse"
       cx="12.693479"
       cy="13.028501"
       fx="10.760019"
       fy="13.364172"
       r="4.6974659"
       spreadMethod="pad">
      <stop
         stop-color="#ffffff"
         offset="0.00000000000"
         stop-opacity="1.00000000000"
         id="stop2" />
      <stop
         stop-color="#000000"
         offset="1.00000000000"
         stop-opacity="1.00000000000"
         id="stop4" />
    </radialGradient>
    <radialGradient
       id="gradient0-3"
       gradientTransform="scale(0.94311191,1.0603196)"
       gradientUnits="userSpaceOnUse"
       cx="12.693479"
       cy="13.028501"
       fx="10.760019"
       fy="13.364172"
       r="4.6974659"
       spreadMethod="pad">
      <stop
         stop-color="#ffffff"
         offset="0.00000000000"
         stop-opacity="1.00000000000"
         id="stop2-6" />
      <stop
         stop-color="#000000"
         offset="1.00000000000"
         stop-opacity="1.00000000000"
         id="stop4-7" />
    </radialGradient>
  </defs>
  <ellipse
     id="path3735"
     cx="152.87799"
     cy="153.56145"
     rx="147.44232"
     ry="145.17746"
     style="fill:#ffff00"
     inkscape:label="Circle" />
  <g
     id="layer0"
     transform="matrix(1.0580707,0,0,1.0550395,2.6163722,-12.379721)"
     inkscape:label="Bird">
    <g
       id="group11-5"
       transform="matrix(0.96611966,0,0,0.95548953,18.812562,39.448087)"
       style="fill:#000000"
       inkscape:label="Shadow">
      <path
         id="shape01111-3"
         transform="translate(3.18245,95.0383)"
         stroke-miterlimit="2.00000000000"
         d="M 17.369867,-34.271073 C -17.091633,43.802527 8.7157368,106.88642 77.150337,133.40042 44.326637,108.44542 30.100783,80.437846 46.300783,50.372546 61.907283,49.470346 73.84,43.5254 80.1452,6.75174 33.201,22.6404 27.475867,-19.092673 17.369867,-34.271073 Z"
         inkscape:connector-curvature="0"
         style="fill:#000000;stroke:#000000;stroke-width:1.41732526;stroke-linecap:butt;stroke-linejoin:miter;stroke-miterlimit:2"
         sodipodi:nodetypes="ccccc" />
      <path
         id="shape111-5"
         transform="translate(54.2195,121.178)"
         stroke-miterlimit="2.00000000000"
         d="m 3.1406091,55.33901 c -0.543214,16.8286 7.3292969,25.786466 15.5225069,28.928266 21.222,1.7453 32.14898,8.538567 55.81848,-4.789033 C 57.604396,29.655843 42.9197,-6.13745 32.7592,0.846351 16.4607,22.2043 11.0825,38.7613 12.7363,45.2078 13.4399,59.4199 11.44049,58.37521 3.1406091,55.33901 Z"
         inkscape:connector-curvature="0"
         style="fill:#000000;stroke:#000000;stroke-width:1.41732526;stroke-linecap:butt;stroke-linejoin:miter;stroke-miterlimit:2"
         sodipodi:nodetypes="cccccc" />
      <path
         id="shape211-6"
         transform="translate(84.4363,97.7813)"
         stroke-miterlimit="2.00000000000"
         d="M 0,3.77601 C 43.9897,-12.5294 40.7758,24.5227 44.3914,104.264 35.0913,79.6628 15.105,14.3304 2.61126,24.3949 7.76681,16.2578 11.3816,-0.456263 0,3.77601 Z"
         inkscape:connector-curvature="0"
         style="fill:#000000;stroke:#000000;stroke-width:1.41732526;stroke-linecap:butt;stroke-linejoin:miter;stroke-miterlimit:2" />
      <path
         id="path20-2"
         stroke-miterlimit="2.00000000000"
         d="m 0.84715,91.842 c -16.2078,-70.056 128.4951,-165.699641 228.6201,0.448559 16.12731,27.437901 0.94719,82.389511 -14.97804,100.053971 -15.92522,17.66446 -36.38304,36.03837 -76.87441,38.58904 C 112.99694,232.48431 113.14735,206.21651 112.25,198.816 105.108,126.757 110.69875,80.7434 67.31895,100.0938 16.672499,112.6365 5.10955,105.9806 0.84715,91.842 Z"
         inkscape:connector-curvature="0"
         style="fill:#000000;fill-rule:evenodd;stroke:#000000;stroke-width:1.41732526;stroke-linecap:butt;stroke-linejoin:miter;stroke-miterlimit:2"
         transform="translate(16.0179,3.1963)"
         sodipodi:nodetypes="cczsccc" />
      <path
         id="shape411-9"
         transform="translate(63.3722,34.6296)"
         stroke-miterlimit="2.00000000000"
         d="M 56.7239,19.2268 C 37.966,17.1261 29.6656,-0.584886 21.6961,0.0148868 9.74219,0.914534 0.0246784,12.0039 8.52215e-5,22.9858 -0.0245092,33.9678 5.27104,44.5144 20.0558,43.6912 34.8409,42.868 37.9017,25.6966 56.7239,19.2268 Z"
         inkscape:connector-curvature="0"
         style="fill:#000000;stroke:#000000;stroke-width:1.41732526;stroke-linecap:square;stroke-linejoin:miter;stroke-miterlimit:2" />
      <path
         id="shape311-1"
         transform="matrix(0.970618,-0.245439,0.175175,0.985449,72.5667,48.1365)"
         stroke-miterlimit="2.00000000000"
         d="M 20.2398,11.4553 C 20.2398,5.1287 15.709,0 10.1199,0 4.53084,0 0,5.1287 0,11.4553 c 0,6.3265 4.53084,11.4552 10.1199,11.4552 5.5891,0 10.1199,-5.1287 10.1199,-11.4552"
         style="fill:#000000;fill-rule:evenodd;stroke:#000000;stroke-width:1.25;stroke-linecap:square;stroke-linejoin:miter;stroke-miterlimit:2"
         inkscape:connector-curvature="0" />
    </g>
    <g
       id="group11"
       transform="matrix(0.96611966,0,0,0.95548955,22.517704,31.485182)"
       style="fill:none"
       inkscape:label="Shape">
      <path
         id="shape01111"
         transform="translate(3.18245,95.0383)"
         stroke-miterlimit="2.00000000000"
         d="M 17.369867,-34.271073 C -17.091633,43.802527 8.7157368,106.88642 77.150337,133.40042 44.326637,108.44542 30.100783,80.437846 46.300783,50.372546 61.907283,49.470346 73.84,43.5254 80.1452,6.75174 33.201,22.6404 27.475867,-19.092673 17.369867,-34.271073 Z"
         inkscape:connector-curvature="0"
         style="fill:#2e2e2e;stroke:#000000;stroke-width:1.41732526;stroke-linecap:butt;stroke-linejoin:miter;stroke-miterlimit:2"
         sodipodi:nodetypes="ccccc" />
      <path
         id="shape111"
         transform="translate(54.2195,121.178)"
         stroke-miterlimit="2.00000000000"
         d="m 3.1406091,55.33901 c -0.543214,16.8286 7.3292969,25.786466 15.5225069,28.928266 21.222,1.7453 32.14898,8.538567 55.81848,-4.789033 C 57.604396,29.655843 42.9197,-6.13745 32.7592,0.846351 16.4607,22.2043 11.0825,38.7613 12.7363,45.2078 13.4399,59.4199 11.44049,58.37521 3.1406091,55.33901 Z"
         inkscape:connector-curvature="0"
         style="fill:#2e2e2e;stroke:#000000;stroke-width:1.41732526;stroke-linecap:butt;stroke-linejoin:miter;stroke-miterlimit:2"
         sodipodi:nodetypes="cccccc" />
      <path
         id="shape211"
         transform="translate(84.4363,97.7813)"
         stroke-miterlimit="2.00000000000"
         d="M 0,3.77601 C 43.9897,-12.5294 40.7758,24.5227 44.3914,104.264 35.0913,79.6628 15.105,14.3304 2.61126,24.3949 7.76681,16.2578 11.3816,-0.456263 0,3.77601 Z"
         inkscape:connector-curvature="0"
         style="fill:#dfa700;stroke:#000000;stroke-width:1.41732526;stroke-linecap:butt;stroke-linejoin:miter;stroke-miterlimit:2" />
      <path
         id="path20"
         stroke-miterlimit="2.00000000000"
         d="m 0.84715,91.842 c -16.2078,-70.056 128.4951,-165.699641 228.6201,0.448559 16.12731,27.437901 0.94719,82.389511 -14.97804,100.053971 -15.92522,17.66446 -36.38304,36.03837 -76.87441,38.58904 C 112.99694,232.48431 113.14735,206.21651 112.25,198.816 105.108,126.757 110.69875,80.7434 67.31895,100.0938 16.672499,112.6365 5.10955,105.9806 0.84715,91.842 Z"
         inkscape:connector-curvature="0"
         style="fill:#005ddf;fill-rule:evenodd;stroke:#000000;stroke-width:1.41732526;stroke-linecap:butt;stroke-linejoin:miter;stroke-miterlimit:2"
         transform="translate(16.0179,3.1963)"
         sodipodi:nodetypes="cczsccc" />
      <path
         id="shape411"
         transform="translate(63.3722,34.6296)"
         stroke-miterlimit="2.00000000000"
         d="M 62.152173,19.002129 C 43.394273,16.901429 36.751338,-0.14211813 22.360786,0.0148868 10.374692,0.14565843 -0.35355185,10.818049 -0.37814502,21.799949 c -0.0245944,10.982 8.27778972,23.977398 23.06255002,23.154198 14.7851,-0.8232 20.645568,-19.482218 39.467768,-25.952018 z"
         inkscape:connector-curvature="0"
         style="fill:#dfa700;stroke:#000000;stroke-width:1.41732526;stroke-linecap:square;stroke-linejoin:miter;stroke-miterlimit:2"
         sodipodi:nodetypes="csscc" />
      <path
         id="shape311"
         transform="matrix(0.970618,-0.245439,0.175175,0.985449,72.5667,48.1365)"
         stroke-miterlimit="2.00000000000"
         d="M 9.4153514,0.54997691 C 3.8262914,0.54997691 0,5.1287 0,11.4553 c 0,6.3265 5.3658246,11.300437 10.954885,11.300437 5.5891,0 9.970315,-4.730067 9.389992,-11.435528 C 19.764555,4.6147479 15.004451,0.54997691 9.4153514,0.54997691 Z"
         style="fill:url(#gradient0);fill-rule:evenodd;stroke:#000000;stroke-width:1.25;stroke-linecap:square;stroke-linejoin:miter;stroke-miterlimit:2"
         inkscape:connector-curvature="0"
         sodipodi:nodetypes="ssszs" />
    </g>
  </g>
</svg>
