<?xml version="1.0" encoding="UTF-8" standalone="no"?>
<svg
   xmlns:dc="http://purl.org/dc/elements/1.1/"
   xmlns:cc="http://creativecommons.org/ns#"
   xmlns:rdf="http://www.w3.org/1999/02/22-rdf-syntax-ns#"
   xmlns:svg="http://www.w3.org/2000/svg"
   xmlns="http://www.w3.org/2000/svg"
   xmlns:sodipodi="http://sodipodi.sourceforge.net/DTD/sodipodi-0.dtd"
   xmlns:inkscape="http://www.inkscape.org/namespaces/inkscape"
   viewBox="0 0 16 16"
   version="1.1"
   id="svg6"
   sodipodi:docname="chatty.svg"
   inkscape:version="0.92.4 5da689c313, 2019-01-14">
  <metadata
     id="metadata12">
    <rdf:RDF>
      <cc:Work
         rdf:about="">
        <dc:format>image/svg+xml</dc:format>
        <dc:type
           rdf:resource="http://purl.org/dc/dcmitype/StillImage" />
      </cc:Work>
    </rdf:RDF>
  </metadata>
  <defs
     id="defs10" />
  <sodipodi:namedview
     pagecolor="#ffffff"
     bordercolor="#666666"
     borderopacity="1"
     objecttolerance="10"
     gridtolerance="10"
     guidetolerance="10"
     inkscape:pageopacity="0"
     inkscape:pageshadow="2"
     inkscape:window-width="1864"
     inkscape:window-height="1051"
     id="namedview8"
     showgrid="false"
     inkscape:zoom="256"
     inkscape:cx="6.6014924"
     inkscape:cy="11.315493"
     inkscape:window-x="0"
     inkscape:window-y="0"
     inkscape:window-maximized="1"
     inkscape:current-layer="svg6" />
  <path
     style="fill:#00ccff;stroke-width:0.85776705"
     d="M 8,2 C 6.3419388,2 4.9978162,3.3441236 4.9978162,5.0021846 c 0,1.6580613 1.3441226,3.0021849 3.0021838,3.0021849 1.6580611,0 3.002185,-1.3441236 3.002185,-3.0021849 C 11.002185,3.3441236 9.6580611,2 8,2 Z m 0.018425,0.5545326 c 0.473732,4.4e-6 0.8533874,0.3737841 0.8544167,0.8527415 l 0.00171,1.1710527 C 8.8755006,5.0520569 8.4938362,5.4310683 8.0201043,5.4310683 7.5496251,5.4310906 7.1602727,5.050459 7.158986,4.5733012 L 7.1572705,3.4072741 C 7.1569762,2.9334941 7.5466118,2.5545292 8.018388,2.5545326 Z M 6.2308555,4.5733012 h 0.4824939 c 6.44e-5,0.4596113 0.2452896,0.8842858 0.6433253,1.1140918 0.3980914,0.2298379 0.8885592,0.2298379 1.2866506,0 C 9.0413609,5.457587 9.2865862,5.0329125 9.2866506,4.5733012 h 0.482494 C 9.7692578,5.2055947 9.4320687,5.789928 8.8845722,6.1062244 8.7418956,6.1879697 8.5885251,6.2494278 8.4288835,6.2888353 V 6.8534201 H 9.2866506 V 7.1466023 H 6.7133494 V 6.8534201 H 7.5711165 V 6.2888353 C 7.4114749,6.2494295 7.2581044,6.1879663 7.1154277,6.1062244 6.5679313,5.789928 6.2307422,5.2055947 6.2308555,4.5733012 Z"
     id="path8"
     inkscape:connector-curvature="0"
     sodipodi:nodetypes="ssssscccccccccsscccccccccccccc" />
  <path
     d="m 8,9 c -2.761,0 -5,2.01 -5,4.5 10e-4,0.167 0.012,0.334 0.033,0.5 h 9.93 C 12.986,13.834 12.998,13.667 13,13.5 13,11.015 10.761,9 8,9 m 0,1 c 1.987,0.002 3.671,1.279 3.955,3 H 4.045 C 4.329,11.279 6.013,10.002 8,10"
     id="path2"
     inkscape:connector-curvature="0"
     style="fill:#00ccff"
     sodipodi:nodetypes="cccccccccc" />
  <g
     transform="matrix(0.85736427,0,0,0.85736427,-6.1495694,-9.1457294)"
     id="g16">
    <path
       sodipodi:nodetypes="scccsss"
       inkscape:connector-curvature="0"
       id="path11"
       d="m 16.521484,13.646781 c -0.550005,-4e-6 -1.004591,0.4418 -1.004248,0.994141 L 15.519436,16 c 0.0015,0.556279 0.455413,1.000026 1.003906,1 0.552285,0 0.997241,-0.441858 0.996094,-0.994141 l -0.0028,-1.364937 c -0.0012,-0.558377 -0.442832,-0.994136 -0.995117,-0.994141 z"
       style="fill:#ffffff" />
    <path
       id="path45-6"
       d="m 14.4375,16 a 2.0634756,2.0634756 0 0 0 1.03125,1.787109 2.0634756,2.0634756 0 0 0 2.0625,0 A 2.0634756,2.0634756 0 0 0 18.5625,16 H 18 a 1.5,1.5 0 0 1 -0.75,1.298828 1.5,1.5 0 0 1 -1.5,0 A 1.5,1.5 0 0 1 15,16 Z"
       style="fill:#ffffff;stroke-width:1.37565041"
       inkscape:connector-curvature="0" />
    <path
       id="rect63"
       d="m 16,18 v 0.679688 h 1 V 18 Z"
       style="fill:#ffffff"
       inkscape:connector-curvature="0" />
    <rect
       y="18.65803"
       x="15"
       height="0.34197077"
       width="3"
       id="rect65"
       style="fill:#ffffff" />
  </g>
</svg>
